<svg width="129" height="31" viewBox="0 0 129 31" fill="none" xmlns="http://www.w3.org/2000/svg">
<path d="M44.6832 11.621C43.4669 10.5198 41.7158 9.96429 39.4196 9.96429C38.0924 9.96429 36.8307 10.1478 35.6448 10.5C34.4589 10.8621 33.4395 11.378 32.5866 12.0476L33.8331 14.2599C34.4791 13.7292 35.2663 13.3026 36.205 12.9901C37.1436 12.6677 38.0974 12.5139 39.0765 12.5139C40.5349 12.5139 41.6401 12.8512 42.387 13.5258C43.1389 14.2054 43.5073 15.1726 43.5073 16.4425V17.0278H38.7585C36.4472 17.0278 34.7667 17.4643 33.7019 18.3324C32.6371 19.2004 32.1072 20.3512 32.1072 21.7798C32.1072 23.2133 32.6623 24.3691 33.7776 25.252C34.8929 26.13 36.3715 26.5714 38.2286 26.5714C39.4953 26.5714 40.5955 26.373 41.519 25.9712C42.4425 25.5695 43.1591 24.9941 43.6587 24.2351V26.383H46.4999V16.5665C46.51 14.374 45.8994 12.7272 44.6832 11.621ZM43.5124 24.2897H39.2228V24.2798C39.0664 24.2897 38.8998 24.2947 38.7333 24.2947C37.5877 24.2947 36.6945 24.0566 36.0485 23.5853C35.4026 23.1141 35.0796 22.4693 35.0796 21.6508C35.0796 19.9742 36.3463 19.1359 38.8897 19.1359H43.5124V24.2897Z" fill="#018992"/>
<path d="M52.4725 26.5714H54.9203V10.2954H52.4725V26.5714ZM54.8832 3.86247C54.57 3.50508 54.1744 3.32141 53.6964 3.32141C53.2225 3.32141 52.8269 3.51004 52.5095 3.89225C52.1964 4.26949 52.0356 4.72615 52.0356 5.25727C52.0356 5.79335 52.1922 6.24503 52.5095 6.61235C52.8269 6.98463 53.2183 7.16333 53.6964 7.16333C54.1703 7.16333 54.5659 6.97471 54.8832 6.5925C55.1963 6.21526 55.3571 5.74866 55.3571 5.19769C55.353 4.66657 55.1963 4.21985 54.8832 3.86247Z" fill="#018992"/>
<path d="M72.1675 19.1761C71.565 18.5607 70.8431 18.1289 70.0016 17.8708C69.155 17.6177 68.0434 17.3745 66.6722 17.1511C65.6438 16.9675 64.8439 16.8037 64.2829 16.6598C63.7167 16.5158 63.2389 16.2925 62.8493 15.9848C62.465 15.677 62.2728 15.2601 62.2728 14.7241C62.2728 14.0491 62.6156 13.5081 63.3012 13.0961C63.9868 12.6891 64.9841 12.4807 66.293 12.4807C68.1785 12.4807 69.8146 12.9125 71.2118 13.7761L72.5259 11.4433C71.7988 10.9917 70.869 10.6343 69.7315 10.3663C68.5992 10.1033 67.4669 9.96429 66.3294 9.96429C64.1686 9.96429 62.439 10.411 61.1561 11.2994C59.8731 12.1878 59.2291 13.3741 59.2291 14.8482C59.2291 15.9947 59.5355 16.8831 60.1588 17.5184C60.7821 18.1537 61.5248 18.6054 62.3923 18.8684C63.2545 19.1364 64.3764 19.3697 65.7476 19.5782C66.7553 19.742 67.5292 19.8909 68.0746 20.0199C68.62 20.1539 69.0771 20.3673 69.4406 20.6502C69.8042 20.9381 69.986 21.3253 69.986 21.8166C69.986 23.2858 68.6356 24.0253 65.9398 24.0253C64.8439 24.0253 63.7635 23.8714 62.6935 23.5637C61.6235 23.256 60.7094 22.849 59.9614 22.3328L58.6785 24.6655C59.4056 25.2165 60.4185 25.6731 61.7014 26.0304C62.9844 26.3878 64.3245 26.5714 65.7165 26.5714C67.9863 26.5714 69.7783 26.1396 71.0976 25.2661C72.4169 24.3975 73.0713 23.2262 73.0713 21.7521C73.0661 20.6502 72.7649 19.7916 72.1675 19.1761Z" fill="#018992"/>
<path d="M79.7143 3.32141H77.5V26.5714H79.7143V3.32141Z" fill="#018992"/>
<path d="M100.75 18.3448C100.75 16.7123 100.394 15.2585 99.693 13.9834C98.9917 12.7181 98.0211 11.7307 96.771 11.0212C95.5259 10.3166 94.103 9.96429 92.5125 9.96429C90.9168 9.96429 89.4888 10.3166 88.2184 11.0212C86.9479 11.7307 85.9519 12.7131 85.2303 13.9834C84.5036 15.2536 84.1428 16.6776 84.1428 18.2505C84.1428 19.8482 84.5189 21.2772 85.2608 22.5474C86.0027 23.8176 87.0546 24.805 88.4166 25.5146C89.7785 26.2191 91.3436 26.5714 93.1019 26.5714C94.4892 26.5714 95.7394 26.3481 96.8624 25.8966C97.9855 25.4451 98.9205 24.7901 99.6726 23.9318L98.0058 22.0314C96.7913 23.3363 95.1855 23.9963 93.1934 23.9963C91.5571 23.9963 90.1901 23.5646 89.0924 22.6913C87.9948 21.823 87.3494 20.6719 87.1614 19.2379H100.679C100.73 18.8658 100.75 18.573 100.75 18.3448ZM87.1665 17.1192C87.3341 15.7249 87.9033 14.5986 88.879 13.7402C89.8547 12.8818 91.0642 12.4501 92.5125 12.4501C93.9557 12.4501 95.1651 12.8818 96.1408 13.7551C97.1165 14.6234 97.6857 15.7448 97.8534 17.1142H87.1665V17.1192Z" fill="#018992"/>
<path d="M115.416 19.1761C114.86 18.5607 114.193 18.1289 113.412 17.8708C112.63 17.6177 111.609 17.3745 110.343 17.1511C109.394 16.9675 108.655 16.8037 108.133 16.6598C107.605 16.5158 107.169 16.2925 106.814 15.9848C106.455 15.677 106.282 15.2601 106.282 14.7241C106.282 14.0491 106.594 13.5081 107.232 13.0961C107.864 12.6891 108.78 12.4807 109.988 12.4807C111.729 12.4807 113.239 12.9125 114.529 13.7761L115.747 11.4433C115.075 10.9917 114.212 10.6343 113.167 10.3663C112.117 10.1033 111.072 9.96429 110.027 9.96429C108.027 9.96429 106.436 10.411 105.251 11.2994C104.062 12.1878 103.468 13.3741 103.468 14.8482C103.468 15.9947 103.755 16.8831 104.331 17.5184C104.906 18.1537 105.587 18.6054 106.392 18.8684C107.193 19.1364 108.229 19.3697 109.49 19.5782C110.42 19.742 111.139 19.8909 111.642 20.0199C112.146 20.1539 112.568 20.3673 112.899 20.6502C113.239 20.9381 113.402 21.3253 113.402 21.8166C113.402 23.2858 112.156 24.0253 109.667 24.0253C108.655 24.0253 107.658 23.8714 106.671 23.5637C105.683 23.256 104.844 22.849 104.149 22.3328L102.964 24.6655C103.636 25.2165 104.566 25.6731 105.75 26.0304C106.939 26.3878 108.171 26.5714 109.456 26.5714C111.551 26.5714 113.21 26.1396 114.428 25.2661C115.641 24.3975 116.25 23.2262 116.25 21.7521C116.245 20.6502 115.967 19.7916 115.416 19.1761Z" fill="#018992"/>
<path d="M14.3555 0L25.828 12.6448C28.468 15.5537 28.2578 20.0535 25.3615 22.705L18.1848 29.2745C15.4986 31.7355 11.3361 31.5399 8.8858 28.842L6.17403 25.8507C4.35422 23.8428 4.49775 20.7331 6.49698 18.9002L14.3247 11.7335L17.2313 14.9359L10.0136 21.5414C9.43943 22.0666 9.39842 22.9676 9.9213 23.5442L11.736 25.5418C12.7715 26.6797 14.5298 26.762 15.6627 25.7272L22.46 19.5026C23.5929 18.4678 23.6749 16.7018 22.6394 15.564L14.0735 6.12159L2.48316 16.8511C1.59632 17.6646 1.07857 18.7303 0.94529 19.8424C-0.684847 17.0056 -0.192731 13.3192 2.31399 11.023L14.3555 0Z" fill="#018992"/>
<path d="M125.914 14.3929L123.952 9.96429H124.746L126.118 13.2135L127.49 9.96429H128.284L126.323 14.3929H125.914ZM123.808 14.3929V9.96429H124.578V14.3929H123.808ZM127.658 14.3929V9.96429H128.429V14.3929H127.658ZM120.919 14.3929V10.3494H121.69V14.3929H120.919ZM119.572 10.6382V9.96429H123.037V10.6382H119.572Z" fill="#018992"/>
<path d="M46.5 24.3571H38.75V26.5714H46.5V24.3571Z" fill="#018992"/>
</svg>
