<svg width="13" height="13" viewBox="0 0 13 13" fill="none" xmlns="http://www.w3.org/2000/svg">
<g clip-path="url(#clip0_112_18428)">
<path d="M2.16667 0.5H3.79167C4.23369 0.5 4.65762 0.675595 4.97018 0.988155C5.28274 1.30072 5.45833 1.72464 5.45833 2.16667V3.79167C5.45833 4.23369 5.28274 4.65762 4.97018 4.97018C4.65762 5.28274 4.23369 5.45833 3.79167 5.45833H2.16667C1.72464 5.45833 1.30072 5.28274 0.988156 4.97018C0.675595 4.65762 0.5 4.23369 0.5 3.79167V2.16667C0.5 1.72464 0.675595 1.30072 0.988155 0.988155C1.30072 0.675595 1.72464 0.5 2.16667 0.5ZM4.91125 4.91125L4.5577 4.5577L4.91125 4.91125C5.20818 4.61432 5.375 4.21159 5.375 3.79167V2.16667C5.375 1.74674 5.20818 1.34401 4.91125 1.04708C4.61432 0.750148 4.21159 0.583333 3.79167 0.583333H2.16667C1.74674 0.583333 1.34401 0.750148 1.04708 1.04708L1.40063 1.40063L1.04708 1.04708C0.750148 1.34401 0.583333 1.74674 0.583333 2.16667V3.79167C0.583333 4.21159 0.750148 4.61432 1.04708 4.91125C1.34401 5.20818 1.74674 5.375 2.16667 5.375H3.79167C4.21159 5.375 4.61432 5.20818 4.91125 4.91125Z" fill="black" stroke="black"/>
<path d="M4.91125 11.9529L4.5577 11.5994L4.91125 11.9529C5.20818 11.656 5.375 11.2532 5.375 10.8333V9.20832C5.375 8.7884 5.20818 8.38567 4.91125 8.08874C4.61432 7.79181 4.21159 7.62499 3.79167 7.62499H2.16667C1.74674 7.62499 1.34401 7.79181 1.04708 8.08874L1.40063 8.44229L1.04708 8.08874C0.750148 8.38567 0.583333 8.7884 0.583333 9.20832V10.8333C0.583333 11.2532 0.750148 11.656 1.04708 11.9529C1.34401 12.2498 1.74674 12.4167 2.16667 12.4167H3.79167C4.21159 12.4167 4.61432 12.2498 4.91125 11.9529ZM2.16667 7.54166H3.79167C4.23369 7.54166 4.65762 7.71725 4.97018 8.02981C5.28274 8.34237 5.45833 8.7663 5.45833 9.20832V10.8333C5.45833 11.2754 5.28274 11.6993 4.97018 12.0118C4.65762 12.3244 4.23369 12.5 3.79167 12.5H2.16667C1.72464 12.5 1.30072 12.3244 0.988156 12.0118C0.675595 11.6993 0.5 11.2754 0.5 10.8333V9.20832C0.5 8.7663 0.675595 8.34237 0.988155 8.02981C1.30072 7.71725 1.72464 7.54166 2.16667 7.54166Z" fill="black" stroke="black"/>
<path d="M12.4286 10.6719L12.4285 10.672L11.1864 11.9124L10.7269 12.3713C10.86 12.3155 10.9824 12.234 11.0865 12.13L11.0865 12.13L12.4876 10.731C12.4915 10.7271 12.4946 10.7225 12.4967 10.7175L12.9586 10.909L12.4967 10.7174C12.4988 10.7124 12.4999 10.707 12.4999 10.7015C12.4999 10.696 12.4988 10.6905 12.4967 10.6855L12.9587 10.4943L12.4967 10.6855C12.4946 10.6804 12.4915 10.6758 12.4877 10.6719L12.8413 10.3185L12.4877 10.6719C12.4838 10.668 12.4792 10.665 12.4741 10.6629L12.4286 10.6719ZM12.4286 10.6719C12.4325 10.668 12.4371 10.6649 12.4421 10.6628C12.4472 10.6608 12.4526 10.6597 12.4581 10.6597C12.4636 10.6597 12.469 10.6608 12.4741 10.6629L12.4286 10.6719ZM10.3331 11.5586V12.4583C10.3193 12.4588 10.3054 12.459 10.2915 12.459C10.2775 12.459 10.2636 12.4588 10.2498 12.4583V11.5586V1.42622V0.526589C10.2636 0.526076 10.2775 0.525818 10.2915 0.525818C10.3054 0.525818 10.3193 0.526076 10.3331 0.526589V1.42622V11.5586ZM9.39646 11.9124L9.85598 12.3713C9.72291 12.3155 9.60055 12.234 9.49645 12.13L9.4964 12.13L8.09526 10.731C8.09137 10.7271 8.0883 10.7225 8.08619 10.7175C8.08409 10.7124 8.08301 10.707 8.08301 10.7015C8.08301 10.696 8.08408 10.6905 8.08618 10.6855L7.62541 10.4948L8.08618 10.6855C8.08828 10.6804 8.09136 10.6758 8.09523 10.6719C8.09911 10.668 8.10371 10.665 8.10878 10.6629C8.11385 10.6608 8.11928 10.6597 8.12477 10.6597C8.13025 10.6597 8.13569 10.6608 8.14076 10.6628C8.14583 10.6649 8.15044 10.668 8.15432 10.6719L8.15442 10.672L9.39646 11.9124ZM9.49645 0.854828C9.60055 0.750862 9.72291 0.669383 9.85598 0.613517L9.39646 1.07244L8.15442 2.31285L8.15431 2.31296C8.15043 2.31684 8.14583 2.31991 8.14076 2.32201L8.33194 2.78402L8.14076 2.32201C8.13569 2.32411 8.13026 2.32519 8.12477 2.32519C8.11928 2.32518 8.11385 2.3241 8.10878 2.322C8.10372 2.3199 8.09911 2.31682 8.09523 2.31294C8.09136 2.30906 8.08828 2.30445 8.08618 2.29938C8.08408 2.29431 8.08301 2.28888 8.08301 2.28339C8.08301 2.27791 8.08409 2.27248 8.08619 2.26741C8.08828 2.26237 8.09134 2.25778 8.0952 2.25392C8.09521 2.2539 8.09523 2.25388 8.09525 2.25386L9.4964 0.854881L9.49645 0.854828ZM10.7269 0.613517C10.86 0.669384 10.9824 0.750862 11.0865 0.854828L11.0865 0.854882L12.4876 2.25386C12.4915 2.25773 12.4946 2.26234 12.4967 2.26741L12.9586 2.0759L12.4967 2.26741C12.4988 2.27248 12.4999 2.27791 12.4999 2.2834C12.4999 2.28888 12.4988 2.29431 12.4967 2.29938C12.4946 2.30445 12.4915 2.30906 12.4877 2.31294L12.8413 2.66637L12.4877 2.31294C12.4838 2.31682 12.4792 2.3199 12.4741 2.322C12.4691 2.3241 12.4636 2.32518 12.4581 2.32519C12.4526 2.32519 12.4472 2.32411 12.4421 2.32201C12.4371 2.31991 12.4325 2.31684 12.4286 2.31296L12.4285 2.31285L11.1864 1.07244L10.7269 0.613517Z" fill="black" stroke="black"/>
</g>
<defs>
<clipPath id="clip0_112_18428">
<rect width="13" height="13" fill="white"/>
</clipPath>
</defs>
</svg>
