<svg width="18" height="22" viewBox="0 0 18 22" fill="none" xmlns="http://www.w3.org/2000/svg">
<path d="M1 13.8851H0.35H1ZM3.73291 17.0834L3.82219 16.4396H3.82219L3.73291 17.0834ZM13.9193 17.0834L13.83 16.4396H13.83L13.9193 17.0834ZM1.46647 12.1872L0.908202 11.8543L1.46647 12.1872ZM3.38914 7.08696C3.38914 4.08421 5.82334 1.65 8.82609 1.65V0.35C5.10537 0.35 2.08914 3.36624 2.08914 7.08696H3.38914ZM3.38914 9.17949V7.08696H2.08914V9.17949H3.38914ZM1.65 13.8851C1.65 13.3851 1.78684 12.9191 2.02473 12.5202L0.908202 11.8543C0.553568 12.449 0.35 13.1443 0.35 13.8851H1.65ZM3.82219 16.4396C2.57081 16.2661 1.65 15.1788 1.65 13.8851H0.35C0.35 15.7972 1.71959 17.4605 3.64363 17.7273L3.82219 16.4396ZM8.82609 16.872C7.32686 16.872 5.3936 16.6575 3.82219 16.4396L3.64363 17.7273C5.2256 17.9466 7.23262 18.172 8.82609 18.172V16.872ZM13.83 16.4396C12.2586 16.6575 10.3253 16.872 8.82609 16.872V18.172C10.4196 18.172 12.4266 17.9466 14.0085 17.7273L13.83 16.4396ZM16.0022 13.8851C16.0022 15.1788 15.0814 16.2661 13.83 16.4396L14.0085 17.7273C15.9326 17.4605 17.3022 15.7972 17.3022 13.8851H16.0022ZM15.6274 12.5202C15.8653 12.9191 16.0022 13.3851 16.0022 13.8851H17.3022C17.3022 13.1443 17.0986 12.449 16.744 11.8543L15.6274 12.5202ZM14.2631 7.08696V9.17951H15.5631V7.08696H14.2631ZM8.82609 1.65C11.8288 1.65 14.2631 4.08421 14.2631 7.08696H15.5631C15.5631 3.36624 12.5468 0.35 8.82609 0.35V1.65ZM16.744 11.8543C16.4387 11.3424 16.1531 10.9191 15.9196 10.4513C15.6946 10.0005 15.5631 9.58869 15.5631 9.17951H14.2631C14.2631 9.87066 14.486 10.4901 14.7565 11.0319C15.0184 11.5566 15.3691 12.087 15.6274 12.5202L16.744 11.8543ZM2.08914 9.17949C2.08914 9.58867 1.95758 10.0005 1.73258 10.4513C1.49905 10.9191 1.21348 11.3424 0.908202 11.8543L2.02473 12.5202C2.28304 12.087 2.63381 11.5566 2.89572 11.0319C3.16615 10.4901 3.38914 9.87065 3.38914 9.17949H2.08914Z" fill="black"/>
<path d="M11 19.834C10.5326 20.5369 9.73347 21.0002 8.82609 21.0002C7.91871 21.0002 7.11954 20.5369 6.65218 19.834" stroke="black" stroke-width="1.3" stroke-linecap="round"/>
</svg>
