<svg width="17" height="17" viewBox="0 0 17 17" fill="none" xmlns="http://www.w3.org/2000/svg">
<path d="M1 8.05683C1 6.83264 1.56058 5.67586 2.52142 4.9173L6.27142 1.95677C7.72466 0.80948 9.77534 0.80948 11.2286 1.95677L14.9786 4.9173C15.9394 5.67586 16.5 6.83264 16.5 8.05683V12.3158C16.5 14.5249 14.7091 16.3158 12.5 16.3158H12.1974C11.6451 16.3158 11.1974 15.8681 11.1974 15.3158V13.4211C11.1974 12.3165 10.3019 11.4211 9.19737 11.4211H8.30263C7.19806 11.4211 6.30263 12.3165 6.30263 13.4211V15.3158C6.30263 15.8681 5.85492 16.3158 5.30263 16.3158H5C2.79086 16.3158 1 14.5249 1 12.3158L1 8.05683Z" stroke="white"/>
</svg>
