<svg width="22" height="17" viewBox="0 0 22 17" fill="none" xmlns="http://www.w3.org/2000/svg">
<circle cx="3.40426" cy="3.40426" r="3.40426" transform="matrix(-1 0 0 1 14.6172 0.999939)" stroke="white"/>
<path d="M5.25537 12.8594C5.25537 12.1271 5.71567 11.474 6.40524 11.2277V11.2277C9.51413 10.1174 12.9115 10.1174 16.0204 11.2277V11.2277C16.71 11.474 17.1703 12.1271 17.1703 12.8594V13.9789C17.1703 14.9895 16.2752 15.7658 15.2748 15.6229L14.9412 15.5753C12.4682 15.222 9.95746 15.222 7.48442 15.5753L7.15087 15.6229C6.15044 15.7658 5.25537 14.9895 5.25537 13.9789V12.8594Z" stroke="white"/>
<path d="M16.3191 7.90268C17.7964 7.90268 18.9939 6.70514 18.9939 5.2279C18.9939 3.75067 17.7964 2.55313 16.3191 2.55313" stroke="white" stroke-linecap="round"/>
<path d="M19.2486 14.005L19.5106 14.0424C20.2967 14.1547 21 13.5448 21 12.7507V11.8711C21 11.2957 20.6383 10.7825 20.0965 10.589C19.5561 10.396 19.0045 10.2457 18.4468 10.1381" stroke="white" stroke-linecap="round"/>
<path d="M5.68088 7.90268C4.20364 7.90268 3.0061 6.70514 3.0061 5.2279C3.0061 3.75067 4.20364 2.55313 5.68088 2.55313" stroke="white" stroke-linecap="round"/>
<path d="M2.75143 14.005L2.48935 14.0424C1.7033 14.1547 1.00003 13.5448 1.00003 12.7507V11.8711C1.00003 11.2957 1.3617 10.7825 1.9035 10.589C2.44395 10.396 2.99549 10.2457 3.55322 10.1381" stroke="white" stroke-linecap="round"/>
</svg>
