<svg width="21" height="17" viewBox="0 0 21 17" fill="none" xmlns="http://www.w3.org/2000/svg">
<path d="M1.31487 6.29045L1.48201 5.81921L1.31487 6.29045ZM19.4351 10.7095L19.268 11.1808L19.4351 10.7095ZM19.4351 6.29045L19.268 5.81921L19.4351 6.29045ZM5 0.5C2.51472 0.5 0.5 2.51472 0.5 5H1.5C1.5 3.067 3.067 1.5 5 1.5V0.5ZM15.75 0.5H5V1.5H15.75V0.5ZM20.25 5C20.25 2.51472 18.2353 0.5 15.75 0.5V1.5C17.683 1.5 19.25 3.067 19.25 5H20.25ZM20.25 5.87617V5H19.25V5.87617H20.25ZM18.375 8.5C18.375 7.6987 18.8864 7.01557 19.6023 6.76169L19.268 5.81921C18.1657 6.21017 17.375 7.26211 17.375 8.5H18.375ZM19.6023 10.2383C18.8864 9.98443 18.375 9.3013 18.375 8.5H17.375C17.375 9.73789 18.1657 10.7898 19.268 11.1808L19.6023 10.2383ZM20.25 12V11.1238H19.25V12H20.25ZM15.75 16.5C18.2353 16.5 20.25 14.4853 20.25 12H19.25C19.25 13.933 17.683 15.5 15.75 15.5V16.5ZM5 16.5H15.75V15.5H5V16.5ZM0.5 12C0.5 14.4853 2.51472 16.5 5 16.5V15.5C3.067 15.5 1.5 13.933 1.5 12H0.5ZM0.5 11.1238V12H1.5V11.1238H0.5ZM1.48201 11.1808C2.58433 10.7898 3.375 9.73789 3.375 8.5H2.375C2.375 9.3013 1.86355 9.98443 1.14774 10.2383L1.48201 11.1808ZM3.375 8.5C3.375 7.26211 2.58433 6.21017 1.48201 5.81921L1.14774 6.76169C1.86355 7.01557 2.375 7.6987 2.375 8.5H3.375ZM0.5 5V5.87617H1.5V5H0.5ZM1.48201 5.81921C1.47812 5.81784 1.47922 5.81661 1.48373 5.82237C1.48956 5.8298 1.5 5.84884 1.5 5.87617H0.5C0.5 6.3173 0.808528 6.64139 1.14774 6.76169L1.48201 5.81921ZM1.5 11.1238C1.5 11.1512 1.48956 11.1702 1.48373 11.1776C1.47922 11.1834 1.47812 11.1822 1.48201 11.1808L1.14774 10.2383C0.808528 10.3586 0.5 10.6827 0.5 11.1238H1.5ZM19.268 11.1808C19.2719 11.1822 19.2708 11.1834 19.2663 11.1776C19.2604 11.1702 19.25 11.1512 19.25 11.1238H20.25C20.25 10.6827 19.9415 10.3586 19.6023 10.2383L19.268 11.1808ZM19.25 5.87617C19.25 5.84884 19.2604 5.8298 19.2663 5.82237C19.2708 5.81661 19.2719 5.81784 19.268 5.81921L19.6023 6.76169C19.9415 6.64139 20.25 6.3173 20.25 5.87617H19.25Z" fill="white"/>
<path d="M9.976 5.27831C10.1761 5.01342 10.5739 5.01342 10.774 5.27831L11.6719 6.46718C11.7317 6.54639 11.8137 6.60601 11.9076 6.63843L13.3157 7.12498C13.6295 7.23338 13.7524 7.6118 13.5623 7.88391L12.7091 9.10522C12.6522 9.1866 12.6209 9.28305 12.6191 9.38231L12.5915 10.8719C12.5853 11.2038 12.2634 11.4376 11.9459 11.3409L10.5207 10.9069C10.4257 10.8779 10.3243 10.8779 10.2293 10.9069L8.80413 11.3409C8.48659 11.4376 8.16469 11.2038 8.15854 10.8719L8.13095 9.38231C8.12911 9.28305 8.09777 9.1866 8.04092 9.10522L7.18769 7.88391C6.99759 7.6118 7.12054 7.23338 7.43429 7.12498L8.84243 6.63843C8.93625 6.60601 9.01831 6.54639 9.07813 6.46718L9.976 5.27831Z" stroke="white"/>
</svg>
