<svg width="20" height="22" viewBox="0 0 20 22" fill="none" xmlns="http://www.w3.org/2000/svg">
<circle cx="3" cy="3" r="3" transform="matrix(-1 0 0 1 13 8)" stroke="white"/>
<path d="M14.5001 3.9375L14.7501 3.50449L14.7501 3.50449L14.5001 3.9375ZM14.5 18.0621L14.25 17.6291L14.5 18.0621ZM5.49999 18.0621L5.24999 18.4952H5.24999L5.49999 18.0621ZM5.49999 3.9375L5.74999 4.37051L5.49999 3.9375ZM6.92293 2.01508L6.4358 1.90237L6.92293 2.01508ZM3.31183 17.7402L3.19704 17.2536L3.31183 17.7402ZM2.40294 17.503L2.78264 17.1777L2.40294 17.503ZM7.53921 20.695L7.66187 20.2103L7.53921 20.695ZM6.92299 19.9848L7.41013 19.8722L6.92299 19.9848ZM13.077 19.9848L12.5899 19.8722L13.077 19.9848ZM12.4608 20.695L12.5834 21.1797L12.4608 20.695ZM17.597 17.503L17.2173 17.1777L17.597 17.503ZM19.4437 7.70289L19.9157 7.53809L19.4437 7.70289ZM19.0935 8.68352L18.7756 8.29763L19.0935 8.68352ZM16.6879 4.2595L16.5732 3.77285L16.6879 4.2595ZM19.0935 13.3165L18.7756 13.7024L19.0935 13.3165ZM19.4437 14.2971L18.9716 14.1323L19.4437 14.2971ZM13.0771 2.01511L12.59 2.12783L13.0771 2.01511ZM12.59 2.12783C12.8008 3.03901 13.3753 3.86548 14.2501 4.37051L14.7501 3.50449C14.1252 3.14373 13.7152 2.55485 13.5643 1.90239L12.59 2.12783ZM14.2501 4.37051C15.0537 4.83448 15.9659 4.94344 16.8027 4.74616L16.5732 3.77285C15.9745 3.914 15.3244 3.8361 14.7501 3.50449L14.2501 4.37051ZM19.9157 7.53809C19.4806 6.29169 18.8174 5.15281 17.9764 4.17137L17.217 4.82204C17.9784 5.71059 18.5783 6.74096 18.9716 7.86768L19.9157 7.53809ZM18.4999 11C18.4999 10.2228 18.854 9.52874 19.4115 9.06941L18.7756 8.29763C17.9974 8.93877 17.4999 9.9115 17.4999 11H18.4999ZM19.4115 12.9306C18.854 12.4713 18.4999 11.7772 18.4999 11H17.4999C17.4999 12.0885 17.9974 13.0612 18.7756 13.7024L19.4115 12.9306ZM17.9767 17.8283C18.8175 16.8469 19.4806 15.7082 19.9157 14.4619L18.9716 14.1323C18.5783 15.2589 17.9785 16.2892 17.2173 17.1777L17.9767 17.8283ZM14.75 18.4952C15.3244 18.1635 15.9746 18.0856 16.5733 18.2268L16.8029 17.2535C15.9661 17.0562 15.0537 17.1651 14.25 17.6291L14.75 18.4952ZM13.5642 20.0975C13.7151 19.4449 14.1251 18.856 14.75 18.4952L14.25 17.6291C13.3752 18.1342 12.8006 18.9608 12.5899 19.8722L13.5642 20.0975ZM9.99995 21.5C10.8908 21.5 11.7564 21.3889 12.5834 21.1797L12.3381 20.2102C11.5907 20.3994 10.8074 20.5 9.99995 20.5V21.5ZM7.41656 21.1797C8.24354 21.389 9.10913 21.5 9.99995 21.5V20.5C9.19252 20.5 8.40931 20.3994 7.66187 20.2103L7.41656 21.1797ZM5.24999 18.4952C5.87491 18.856 6.28492 19.445 6.43584 20.0975L7.41013 19.8722C7.19935 18.9609 6.62484 18.1342 5.74999 17.6291L5.24999 18.4952ZM3.42661 18.2269C4.02534 18.0856 4.67555 18.1635 5.24999 18.4952L5.74999 17.6291C4.94627 17.1651 4.03387 17.0562 3.19704 17.2536L3.42661 18.2269ZM0.0841889 14.4619C0.519269 15.7082 1.18241 16.847 2.02325 17.8283L2.78264 17.1777C2.02138 16.2892 1.42161 15.2589 1.02831 14.1323L0.0841889 14.4619ZM1.49998 11C1.49998 11.7772 1.14593 12.4713 0.588441 12.9306L1.22433 13.7024C2.00248 13.0612 2.49998 12.0885 2.49998 11H1.49998ZM0.588442 9.0694C1.14593 9.52873 1.49998 10.2228 1.49998 11H2.49998C2.49998 9.91149 2.00248 8.93876 1.22433 8.29762L0.588442 9.0694ZM2.02353 4.17134C1.18256 5.15278 0.519319 6.29166 0.0841904 7.53807L1.02831 7.86767C1.42166 6.74094 2.02152 5.71056 2.78289 4.82201L2.02353 4.17134ZM5.24999 3.50449C4.6756 3.83611 4.02546 3.914 3.42676 3.77283L3.19725 4.74613C4.03403 4.94345 4.94634 4.8345 5.74999 4.37051L5.24999 3.50449ZM6.4358 1.90237C6.28483 2.55483 5.87484 3.14373 5.24999 3.50449L5.74999 4.37051C6.62474 3.86548 7.19922 3.03899 7.41006 2.12779L6.4358 1.90237ZM9.99995 0.5C9.10911 0.5 8.24349 0.611053 7.41648 0.82032L7.66179 1.78976C8.40926 1.60062 9.1925 1.5 9.99995 1.5V0.5ZM12.5836 0.820365C11.7565 0.611069 10.8909 0.5 9.99995 0.5V1.5C10.8075 1.5 11.5907 1.60064 12.3383 1.78981L12.5836 0.820365ZM7.41006 2.12779C7.46031 1.91063 7.57733 1.81114 7.66179 1.78976L7.41648 0.82032C6.84663 0.964518 6.5377 1.46196 6.4358 1.90237L7.41006 2.12779ZM1.22433 8.29762C1.02558 8.13387 0.99688 7.9577 1.02831 7.86767L0.0841904 7.53807C-0.134907 8.16567 0.200557 8.74982 0.588442 9.0694L1.22433 8.29762ZM3.19704 17.2536C2.98059 17.3046 2.83949 17.244 2.78264 17.1777L2.02325 17.8283C2.40507 18.274 2.98686 18.3306 3.42661 18.2269L3.19704 17.2536ZM7.66187 20.2103C7.5774 20.1889 7.46036 20.0894 7.41013 19.8722L6.43584 20.0975C6.53771 20.538 6.84665 21.0355 7.41656 21.1797L7.66187 20.2103ZM12.5899 19.8722C12.5396 20.0893 12.4226 20.1889 12.3381 20.2102L12.5834 21.1797C13.1534 21.0355 13.4623 20.5379 13.5642 20.0975L12.5899 19.8722ZM17.2173 17.1777C17.1604 17.244 17.0193 17.3046 16.8029 17.2535L16.5733 18.2268C17.0131 18.3306 17.5949 18.2739 17.9767 17.8283L17.2173 17.1777ZM18.9716 7.86768C19.003 7.95772 18.9743 8.13388 18.7756 8.29763L19.4115 9.06941C19.7993 8.74982 20.1348 8.16568 19.9157 7.53809L18.9716 7.86768ZM1.02831 14.1323C0.996879 14.0423 1.02558 13.8661 1.22433 13.7024L0.588441 12.9306C0.200556 13.2502 -0.134908 13.8343 0.0841889 14.4619L1.02831 14.1323ZM16.8027 4.74616C17.0191 4.69513 17.1602 4.7557 17.217 4.82204L17.9764 4.17137C17.5946 3.72582 17.0129 3.66918 16.5732 3.77285L16.8027 4.74616ZM2.78289 4.82201C2.83974 4.75566 2.98082 4.6951 3.19725 4.74613L3.42676 3.77283C2.98705 3.66914 2.40533 3.72577 2.02353 4.17134L2.78289 4.82201ZM18.7756 13.7024C18.9743 13.8661 19.003 14.0423 18.9716 14.1323L19.9157 14.4619C20.1348 13.8343 19.7993 13.2502 19.4115 12.9306L18.7756 13.7024ZM13.5643 1.90239C13.4623 1.462 13.1534 0.964568 12.5836 0.820365L12.3383 1.78981C12.4227 1.81118 12.5397 1.91067 12.59 2.12783L13.5643 1.90239Z" fill="white"/>
</svg>
