<svg width="26" height="26" viewBox="0 0 26 26" fill="none" xmlns="http://www.w3.org/2000/svg">
<g style="mix-blend-mode:multiply">
<rect x="0.5" y="0.5" width="25" height="25" rx="7" fill="#F5F5F5"/>
<path d="M8.37127 6.54754V14.8886C7.75178 15.1179 7.3042 15.7622 7.3042 16.5196C7.3042 17.277 7.75178 17.9212 8.37127 18.1506V19.4525C8.37127 19.755 8.5943 20.0002 8.86939 20.0002C9.14449 20.0002 9.36751 19.755 9.36751 19.4525V18.1505C9.987 17.9212 10.4346 17.277 10.4346 16.5196C10.4346 15.7621 9.987 15.1179 9.36751 14.8886V6.54751C9.36751 6.24506 9.14449 5.99986 8.86939 5.99986C8.5943 5.99986 8.37127 6.24506 8.37127 6.54754ZM9.43834 16.5196C9.43834 16.8645 9.18311 17.1451 8.86939 17.1451C8.55567 17.1451 8.30044 16.8645 8.30044 16.5196C8.30044 16.1747 8.55567 15.8941 8.86939 15.8941C9.18311 15.8941 9.43834 16.1747 9.43834 16.5196Z" fill="#353542"/>
<path d="M12.5016 6.54754V7.84956C11.8821 8.07888 11.4346 8.72313 11.4346 9.48053C11.4346 10.2379 11.8821 10.8821 12.5016 11.1115V19.4525C12.5016 19.755 12.7247 20.0002 12.9998 20.0002C13.2749 20.0002 13.4979 19.755 13.4979 19.4525V11.1115C14.1174 10.8821 14.565 10.2379 14.565 9.48049C14.565 8.72309 14.1174 8.07884 13.4979 7.84952V6.54751C13.4979 6.24506 13.2749 5.99986 12.9998 5.99986C12.7247 5.99986 12.5016 6.24506 12.5016 6.54754ZM13.5687 9.48049C13.5687 9.8254 13.3135 10.106 12.9998 10.106C12.686 10.106 12.4308 9.8254 12.4308 9.48049C12.4308 9.13558 12.686 8.85497 12.9998 8.85497C13.3135 8.85497 13.5687 9.13558 13.5687 9.48049Z" fill="#353542"/>
<path d="M16.6325 6.54754V12.5422C16.013 12.7716 15.5654 13.4158 15.5654 14.1732C15.5654 14.9306 16.013 15.5749 16.6325 15.8042V19.4525C16.6325 19.755 16.8555 20.0002 17.1306 20.0002C17.4057 20.0002 17.6287 19.755 17.6287 19.4525V15.8042C18.2482 15.5749 18.6958 14.9306 18.6958 14.1732C18.6958 13.4158 18.2482 12.7716 17.6287 12.5422V6.54751C17.6287 6.24506 17.4057 5.99986 17.1306 5.99986C16.8555 5.99986 16.6325 6.24506 16.6325 6.54754ZM17.6996 14.1732C17.6996 14.5181 17.4444 14.7987 17.1307 14.7987C16.8169 14.7987 16.5617 14.5181 16.5617 14.1732C16.5617 13.8283 16.8169 13.5477 17.1306 13.5477C17.4443 13.5477 17.6996 13.8283 17.6996 14.1732Z" fill="#353542"/>
</g>
</svg>
